<?xml version="1.0" standalone="no"?>
<!DOCTYPE svg PUBLIC "-//W3C//DTD SVG 1.1//EN" "http://www.w3.org/Graphics/SVG/1.1/DTD/svg11.dtd" >
<svg xmlns="http://www.w3.org/2000/svg">
<metadata></metadata>
<defs>
<font id="bicubikregular" horiz-adv-x="1597" >
<font-face units-per-em="2048" ascent="1638" descent="-410" />
<missing-glyph horiz-adv-x="819" />
<glyph horiz-adv-x="2048" />
<glyph horiz-adv-x="2048" />
<glyph unicode="&#xd;" horiz-adv-x="2048" />
<glyph unicode=" "  horiz-adv-x="819" />
<glyph unicode="&#x09;" horiz-adv-x="819" />
<glyph unicode="&#xa0;" horiz-adv-x="819" />
<glyph unicode="!" horiz-adv-x="409" d="M102 0v205h205v-205h-205zM102 410v1024h205v-1024h-205z" />
<glyph unicode="&#x22;" horiz-adv-x="819" d="M102 1024v410h205v-410h-205zM512 1024v410h205v-410h-205z" />
<glyph unicode="#" horiz-adv-x="1351" d="M61 205v205h205v409h-205v205h205v205h205v-205h410v205h204v-205h205v-205h-205v-409h205v-205h-205v-205h-204v205h-410v-205h-205v205h-205zM471 410h410v409h-410v-409z" />
<glyph unicode="$" d="M82 410h205q0 -85 60 -145t145 -60h204v409h-204q-166 0 -288 119.5t-122 290.5q0 107 54 201.5t149 151.5t207 57h204v204h205v-204h205q81 0 155.5 -32.5t129.5 -87t89 -130.5t36 -160h-205q0 85 -60 145t-145 60h-205v-410h205q163 0 286.5 -120.5t123.5 -288.5 q0 -166 -119.5 -286t-290.5 -124h-205v-205h-205v205h-204q-110 0 -203 54t-148.5 148t-58.5 208zM287 1024q0 -85 60 -145t145 -60h204v410h-204q-85 0 -145 -60t-60 -145zM901 205h205q85 0 145 60t60 145t-60 144.5t-145 59.5h-205v-409z" />
<glyph unicode="%" horiz-adv-x="1863" d="M61 1024q0 107 54 201.5t149 151.5t207 57q81 0 155.5 -32.5t129.5 -87t89 -130.5t36 -160q0 -107 -54 -201.5t-149 -151.5t-207 -57q-166 0 -288 119.5t-122 290.5zM266 1024q0 -85 60 -145t145 -60t145 60t60 145t-60 145t-145 60t-145 -60t-60 -145zM369 0v158 l997 1276h129v-166l-989 -1268h-137zM983 410q0 107 54 201t149 151t207 57q108 0 201 -54.5t149 -148.5t59 -206q0 -107 -54 -201.5t-148.5 -151.5t-206.5 -57q-166 0 -288 119.5t-122 290.5zM1188 410q0 -85 60 -145t145 -60t144.5 60t59.5 145t-59.5 144.5t-144.5 59.5 t-145 -59.5t-60 -144.5z" />
<glyph unicode="&#x26;" horiz-adv-x="1576" d="M82 410q0 183 139 307q-139 124 -139 307q0 107 54 201.5t149 151.5t207 57q163 0 286 -121t123 -289q0 -111 -55 -205h55q183 0 307 -139q124 139 308 139v-205q-85 0 -145 -59.5t-60 -144.5t60 -145t145 -60v-205q-184 0 -308 139q-124 -139 -307 -139h-409 q-166 0 -288 119.5t-122 290.5zM287 410q0 -85 60 -145t145 -60h409q85 0 145 60t60 145t-60 144.5t-145 59.5h-409q-85 0 -145 -59.5t-60 -144.5zM287 1024q0 -85 60 -145t145 -60t144.5 60t59.5 145t-59.5 145t-144.5 60t-145 -60t-60 -145z" />
<glyph unicode="'" horiz-adv-x="409" d="M102 1024v410h205v-410h-205z" />
<glyph unicode="(" horiz-adv-x="532" d="M82 205v1024q0 166 119.5 285.5t290.5 123.5v-204q-85 0 -145 -60t-60 -145v-1024q0 -85 60 -145t145 -60v-205q-107 0 -201.5 54t-151.5 149t-57 207z" />
<glyph unicode=")" horiz-adv-x="532" d="M41 0q85 0 145 60t60 145v1024q0 85 -60 145t-145 60v204q163 0 286.5 -120.5t123.5 -288.5v-1024q0 -81 -32.5 -155.5t-87 -129.5t-130.5 -89t-160 -36v205z" />
<glyph unicode="*" horiz-adv-x="1122" d="M41 954l51 199l367 -98v379h205v-379l366 98l51 -199l-364 -96l188 -330l-176 -102l-168 291l-168 -291l-176 102l189 330z" />
<glyph unicode="+" horiz-adv-x="1105" d="M41 614v205h410v410h204v-410h410v-205h-410v-409h-204v409h-410z" />
<glyph unicode="," horiz-adv-x="409" d="M102 -205v410h205v-410h-205z" />
<glyph unicode="-" horiz-adv-x="1003" d="M41 614v205h922v-205h-922z" />
<glyph unicode="." horiz-adv-x="409" d="M102 0v205h205v-205h-205z" />
<glyph unicode="/" horiz-adv-x="1126" d="M0 0v158l997 1276h129v-166l-989 -1268h-137z" />
<glyph unicode="0" d="M82 410v614q0 107 54 201.5t149 151.5t207 57h614q81 0 155.5 -32.5t129.5 -87t89 -130.5t36 -160v-614q0 -107 -54 -201.5t-149 -151.5t-207 -57h-614q-166 0 -288 119.5t-122 290.5zM287 410q0 -85 60 -145t145 -60h614q85 0 145 60t60 145v614q0 85 -60 145t-145 60 h-614q-85 0 -145 -60t-60 -145v-614z" />
<glyph unicode="1" horiz-adv-x="737" d="M20 819v205l410 410h205v-1434h-205v1145l-326 -326h-84z" />
<glyph unicode="2" d="M82 0v307q0 107 54 201.5t149 151.5t207 57h614q85 0 145 60t60 145v102q0 85 -60 145t-145 60h-614q-85 0 -145 -60t-60 -145h-205q0 107 54 201.5t149 151.5t207 57h614q163 0 286.5 -121t123.5 -289v-102q0 -107 -54 -201.5t-149 -151.5t-207 -57h-614q-85 0 -145 -60 t-60 -145v-102h1229v-205h-1434z" />
<glyph unicode="3" d="M82 410h205q0 -85 60 -145t145 -60h614q85 0 145 60t60 145t-60 144.5t-145 59.5h-410v205h410q85 0 145 60t60 145t-60 145t-145 60h-614q-85 0 -145 -60t-60 -145h-205q0 107 54 201.5t149 151.5t207 57h614q163 0 286.5 -121t123.5 -289q0 -182 -140 -307 q140 -125 140 -307q0 -107 -54 -201.5t-149 -151.5t-207 -57h-614q-110 0 -203 54t-148.5 148t-58.5 208z" />
<glyph unicode="4" horiz-adv-x="1556" d="M61 205v205l1024 1024h205v-1024h205v-205h-205v-205h-205v205h-1024zM350 410h735v735z" />
<glyph unicode="5" horiz-adv-x="1617" d="M102 410h205q0 -85 60 -145t145 -60h614q85 0 145 60t60 145v82q0 85 -60 144.5t-145 59.5h-962v738h1290v-205h-1085v-328h757q163 0 286.5 -120.5t123.5 -288.5v-82q0 -107 -54 -201.5t-149 -151.5t-207 -57h-614q-110 0 -203 54t-148.5 148t-58.5 208z" />
<glyph unicode="6" d="M82 410v614q0 107 54 201.5t149 151.5t207 57h614q81 0 155.5 -32.5t129.5 -87t89 -130.5t36 -160h-205q0 85 -60 145t-145 60h-614q-85 0 -145 -60t-60 -145v-205h819q168 0 289 -121t121 -288q0 -107 -54 -201.5t-149 -151.5t-207 -57h-614q-166 0 -288 119.5 t-122 290.5zM287 410q0 -85 60 -145t145 -60h614q85 0 145 60t60 145t-60 144.5t-145 59.5h-819v-204z" />
<glyph unicode="7" horiz-adv-x="1515" d="M41 1229v205h1434v-250l-820 -1049v-135h-204v205l800 1024h-1210z" />
<glyph unicode="8" d="M82 410q0 183 139 307q-139 124 -139 307q0 166 119.5 286t290.5 124h614q163 0 286.5 -121t123.5 -289q0 -182 -140 -307q140 -125 140 -307q0 -107 -54 -201.5t-149 -151.5t-207 -57h-614q-166 0 -288 119.5t-122 290.5zM287 410q0 -85 60 -145t145 -60h614 q85 0 145 60t60 145t-60 144.5t-145 59.5h-614q-85 0 -145 -59.5t-60 -144.5zM287 1024q0 -85 60 -145t145 -60h614q85 0 145 60t60 145t-60 145t-145 60h-614q-85 0 -145 -60t-60 -145z" />
<glyph unicode="9" d="M82 410h205q0 -85 60 -145t145 -60h614q85 0 145 60t60 145v204h-819q-166 0 -288 119.5t-122 290.5q0 107 54 201.5t149 151.5t207 57h614q163 0 286.5 -121t123.5 -289v-614q0 -107 -54 -201.5t-149 -151.5t-207 -57h-614q-110 0 -203 54t-148.5 148t-58.5 208z M287 1024q0 -85 60 -145t145 -60h819v205q0 85 -60 145t-145 60h-614q-85 0 -145 -60t-60 -145z" />
<glyph unicode=":" horiz-adv-x="409" d="M102 0v205h205v-205h-205zM102 819v205h205v-205h-205z" />
<glyph unicode=";" horiz-adv-x="409" d="M102 -205v410h205v-410h-205zM102 819v205h205v-205h-205z" />
<glyph unicode="&#x3c;" horiz-adv-x="798" d="M41 571v86l573 572h50l94 -94v-52l-469 -469l469 -469v-51l-94 -94h-50z" />
<glyph unicode="=" horiz-adv-x="1105" d="M41 205v205h1024v-205h-1024zM41 819v205h1024v-205h-1024z" />
<glyph unicode="&#x3e;" horiz-adv-x="798" d="M41 94v51l469 469l-469 469v52l94 94h49l574 -572v-86l-574 -571h-49z" />
<glyph unicode="?" horiz-adv-x="1495" d="M0 1024q0 107 54 201.5t149 151.5t207 57h614q163 0 286.5 -121t123.5 -289q0 -107 -54 -201.5t-149 -151.5t-207 -57q-85 0 -145 -59.5t-60 -144.5h-205q0 107 54 201t149 151t207 57q85 0 145 60t60 145t-60 145t-145 60h-614q-85 0 -145 -60t-60 -145h-205zM614 0v205 h205v-205h-205z" />
<glyph unicode="@" d="M82 410v614q0 107 54 201.5t149 151.5t207 57h614q163 0 286.5 -121t123.5 -289v-205q0 -107 -54 -201t-149 -151t-207 -57h-307q-125 0 -214 89t-93 218q0 123 90 215t217 92q123 0 215 -90t92 -217q0 -51 -19 -103h19q85 0 145 60t60 145v205q0 85 -60 145t-145 60 h-614q-85 0 -145 -60t-60 -145v-614q0 -85 60 -145t145 -60h614v-205h-614q-166 0 -288 119.5t-122 290.5zM696 717q0 -43 30 -73t73 -30t72.5 30t29.5 73t-29.5 72.5t-72.5 29.5t-73 -29.5t-30 -72.5z" />
<glyph unicode="A" horiz-adv-x="1638" d="M102 0v1024q0 107 54 201.5t149 151.5t207 57h614q81 0 155.5 -32.5t129.5 -87t89 -130.5t36 -160v-1024h-205v410h-1024v-410h-205zM307 614h1024v410q0 85 -60 145t-145 60h-614q-85 0 -145 -60t-60 -145v-410z" />
<glyph unicode="B" horiz-adv-x="1617" d="M102 0v1434h1024q163 0 286.5 -121t123.5 -289q0 -183 -139 -307q139 -124 139 -307q0 -166 -119.5 -286t-290.5 -124h-1024zM307 205h819q85 0 145 60t60 145t-60 144.5t-145 59.5h-819v-409zM307 819h819q85 0 145 60t60 145t-60 145t-145 60h-819v-410z" />
<glyph unicode="C" horiz-adv-x="1576" d="M82 410v614q0 166 119.5 286t290.5 124h614q81 0 155.5 -32.5t129.5 -87t89 -130.5t36 -160h-205q0 85 -60 145t-145 60h-614q-85 0 -145 -60t-60 -145v-614q0 -85 60 -145t145 -60h614q85 0 145 60t60 145h205q0 -107 -54 -201.5t-149 -151.5t-207 -57h-614 q-166 0 -288 119.5t-122 290.5z" />
<glyph unicode="D" horiz-adv-x="1617" d="M102 0v1434h1024q81 0 155.5 -32.5t129.5 -87t89 -130.5t36 -160v-614q0 -107 -54 -201.5t-149 -151.5t-207 -57h-1024zM307 205h819q85 0 145 60t60 145v614q0 85 -60 145t-145 60h-819v-1024z" />
<glyph unicode="E" d="M102 0v1434h1434v-205h-1229v-410h1024v-205h-1024v-409h1229v-205h-1434z" />
<glyph unicode="F" horiz-adv-x="1576" d="M102 0v1434h1434v-205h-1229v-410h1024v-205h-1024v-614h-205z" />
<glyph unicode="G" d="M82 410v614q0 107 54 201.5t149 151.5t207 57h614q81 0 155.5 -32.5t129.5 -87t89 -130.5t36 -160h-205q0 85 -60 145t-145 60h-614q-85 0 -145 -60t-60 -145v-614q0 -85 60 -145t145 -60h614q85 0 145 60t60 145v204h-615v205h820v-409q0 -107 -54 -201.5t-149 -151.5 t-207 -57h-614q-166 0 -288 119.5t-122 290.5z" />
<glyph unicode="H" horiz-adv-x="1638" d="M102 0v1434h205v-615h1024v615h205v-1434h-205v614h-1024v-614h-205z" />
<glyph unicode="I" horiz-adv-x="409" d="M102 0v1434h205v-1434h-205z" />
<glyph unicode="J" horiz-adv-x="1576" d="M41 410h205q0 -85 60 -145t145 -60h614q85 0 145 60t60 145v1024h205v-1024q0 -107 -54 -201.5t-149 -151.5t-207 -57h-614q-110 0 -203 54t-148.5 148t-58.5 208z" />
<glyph unicode="K" horiz-adv-x="1536" d="M102 0v1434h205v-615h326l614 615h289l-717 -717l717 -717h-289l-614 614h-326v-614h-205z" />
<glyph unicode="L" horiz-adv-x="1536" d="M102 0v1434h205v-1229h1229v-205h-1434z" />
<glyph unicode="M" horiz-adv-x="1843" d="M102 0v1434h205l615 -887l614 887h205v-1434h-205v1067l-614 -887l-615 887v-1067h-205z" />
<glyph unicode="N" horiz-adv-x="1638" d="M102 0v1434h205l1024 -1086v1086h205v-1434h-205l-1024 1102v-1102h-205z" />
<glyph unicode="O" d="M82 410v614q0 169 120.5 289.5t289.5 120.5h614q164 0 287 -122t123 -288v-614q0 -169 -120.5 -289.5t-289.5 -120.5h-614q-170 0 -290 120t-120 290zM287 410q0 -85 60 -145t145 -60h614q85 0 145 60t60 145v614q0 85 -60 145t-145 60h-614q-85 0 -145 -60t-60 -145 v-614z" />
<glyph unicode="P" d="M102 0v1434h1024q81 0 155.5 -32.5t129.5 -87t89 -130.5t36 -160v-205q0 -107 -54 -201t-149 -151t-207 -57h-819v-410h-205zM307 614h819q85 0 145 60t60 145v205q0 85 -60 145t-145 60h-819v-615z" />
<glyph unicode="Q" d="M82 410v614q0 107 54 201.5t149 151.5t207 57h614q163 0 286.5 -121t123.5 -289v-614q0 -115 -58 -209l58 -56v-145h-146l-55 57q-92 -57 -209 -57h-614q-166 0 -288 119.5t-122 290.5zM287 410q0 -85 60 -145t145 -60h614q26 0 53 6l-258 258v145h146l258 -258 q6 27 6 54v614q0 85 -60 145t-145 60h-614q-85 0 -145 -60t-60 -145v-614z" />
<glyph unicode="R" horiz-adv-x="1617" d="M102 0v1434h1024q163 0 286.5 -121t123.5 -289v-205q0 -131 -79 -238.5t-206 -150.5l285 -285v-145h-145l-410 410h-674v-410h-205zM307 614h819q85 0 145 60t60 145v205q0 85 -60 145t-145 60h-819v-615z" />
<glyph unicode="S" d="M82 410h205q0 -85 60 -145t145 -60h614q85 0 145 60t60 145t-60 144.5t-145 59.5h-614q-166 0 -288 119.5t-122 290.5q0 107 54 201.5t149 151.5t207 57h614q81 0 155.5 -32.5t129.5 -87t89 -130.5t36 -160h-205q0 85 -60 145t-145 60h-614q-85 0 -145 -60t-60 -145 t60 -145t145 -60h614q163 0 286.5 -120.5t123.5 -288.5q0 -107 -54 -201.5t-149 -151.5t-207 -57h-614q-110 0 -203 54t-148.5 148t-58.5 208z" />
<glyph unicode="T" horiz-adv-x="1433" d="M0 1229v205h1434v-205h-615v-1229h-205v1229h-614z" />
<glyph unicode="U" horiz-adv-x="1638" d="M102 410v1024h205v-1024q0 -85 60 -145t145 -60h614q85 0 145 60t60 145v1024h205v-1024q0 -107 -54 -201.5t-149 -151.5t-207 -57h-614q-166 0 -288 119.5t-122 290.5z" />
<glyph unicode="V" horiz-adv-x="1515" d="M41 1024v410h205v-361l442 -868h139l443 868v361h205v-410l-523 -1024h-389z" />
<glyph unicode="W" horiz-adv-x="2048" d="M102 410v1024h205v-1024q0 -85 60 -145t145 -60h205q85 0 145 60t60 145v1024h204v-1024q0 -85 60 -145t145 -60h205q85 0 145 60t60 145v1024h205v-1024q0 -107 -54 -201.5t-149 -151.5t-207 -57h-205q-183 0 -307 139q-124 -139 -307 -139h-205q-166 0 -288 119.5 t-122 290.5z" />
<glyph unicode="X" horiz-adv-x="1556" d="M61 0v303l547 412l-547 411v308h205v-205l512 -385l512 385v205h205v-308l-547 -411l547 -412v-303h-205v201l-512 385l-512 -385v-201h-205z" />
<glyph unicode="Y" horiz-adv-x="1515" d="M41 1126v308h205v-224l512 -563l512 563v224h205v-308l-615 -675v-451h-205v451z" />
<glyph unicode="Z" horiz-adv-x="1556" d="M61 0v205l1137 1024h-1137v205h1434v-205l-1128 -1024h1128v-205h-1434z" />
<glyph unicode="[" horiz-adv-x="716" d="M102 -205v1843h615v-204h-410v-1434h410v-205h-615z" />
<glyph unicode="\" horiz-adv-x="1126" d="M0 1268v166h129l997 -1276v-158h-137z" />
<glyph unicode="]" horiz-adv-x="716" d="M0 0h410v1434h-410v204h614v-1843h-614v205z" />
<glyph unicode="^" horiz-adv-x="901" d="M41 1016v51l367 367h86l366 -367v-51l-94 -94h-51l-264 264l-265 -264h-51z" />
<glyph unicode="_" horiz-adv-x="1310" d="M41 0v205h1229v-205h-1229z" />
<glyph unicode="`" horiz-adv-x="409" d="M102 1024v410h205v-410h-205z" />
<glyph unicode="a" horiz-adv-x="1638" d="M102 0v1024q0 107 54 201.5t149 151.5t207 57h614q81 0 155.5 -32.5t129.5 -87t89 -130.5t36 -160v-1024h-205v410h-1024v-410h-205zM307 614h1024v410q0 85 -60 145t-145 60h-614q-85 0 -145 -60t-60 -145v-410z" />
<glyph unicode="b" horiz-adv-x="1617" d="M102 0v1434h1024q163 0 286.5 -121t123.5 -289q0 -183 -139 -307q139 -124 139 -307q0 -166 -119.5 -286t-290.5 -124h-1024zM307 205h819q85 0 145 60t60 145t-60 144.5t-145 59.5h-819v-409zM307 819h819q85 0 145 60t60 145t-60 145t-145 60h-819v-410z" />
<glyph unicode="c" horiz-adv-x="1576" d="M82 410v614q0 166 119.5 286t290.5 124h614q81 0 155.5 -32.5t129.5 -87t89 -130.5t36 -160h-205q0 85 -60 145t-145 60h-614q-85 0 -145 -60t-60 -145v-614q0 -85 60 -145t145 -60h614q85 0 145 60t60 145h205q0 -107 -54 -201.5t-149 -151.5t-207 -57h-614 q-166 0 -288 119.5t-122 290.5z" />
<glyph unicode="d" horiz-adv-x="1617" d="M102 0v1434h1024q81 0 155.5 -32.5t129.5 -87t89 -130.5t36 -160v-614q0 -107 -54 -201.5t-149 -151.5t-207 -57h-1024zM307 205h819q85 0 145 60t60 145v614q0 85 -60 145t-145 60h-819v-1024z" />
<glyph unicode="e" d="M102 0v1434h1434v-205h-1229v-410h1024v-205h-1024v-409h1229v-205h-1434z" />
<glyph unicode="f" horiz-adv-x="1576" d="M102 0v1434h1434v-205h-1229v-410h1024v-205h-1024v-614h-205z" />
<glyph unicode="g" d="M82 410v614q0 107 54 201.5t149 151.5t207 57h614q81 0 155.5 -32.5t129.5 -87t89 -130.5t36 -160h-205q0 85 -60 145t-145 60h-614q-85 0 -145 -60t-60 -145v-614q0 -85 60 -145t145 -60h614q85 0 145 60t60 145v204h-615v205h820v-409q0 -107 -54 -201.5t-149 -151.5 t-207 -57h-614q-166 0 -288 119.5t-122 290.5z" />
<glyph unicode="h" horiz-adv-x="1638" d="M102 0v1434h205v-615h1024v615h205v-1434h-205v614h-1024v-614h-205z" />
<glyph unicode="i" horiz-adv-x="409" d="M102 0v1434h205v-1434h-205z" />
<glyph unicode="j" horiz-adv-x="1576" d="M41 410h205q0 -85 60 -145t145 -60h614q85 0 145 60t60 145v1024h205v-1024q0 -107 -54 -201.5t-149 -151.5t-207 -57h-614q-110 0 -203 54t-148.5 148t-58.5 208z" />
<glyph unicode="k" horiz-adv-x="1536" d="M102 0v1434h205v-615h326l614 615h289l-717 -717l717 -717h-289l-614 614h-326v-614h-205z" />
<glyph unicode="l" horiz-adv-x="1536" d="M102 0v1434h205v-1229h1229v-205h-1434z" />
<glyph unicode="m" horiz-adv-x="1843" d="M102 0v1434h205l615 -887l614 887h205v-1434h-205v1067l-614 -887l-615 887v-1067h-205z" />
<glyph unicode="n" horiz-adv-x="1638" d="M102 0v1434h205l1024 -1086v1086h205v-1434h-205l-1024 1102v-1102h-205z" />
<glyph unicode="o" d="M82 410v614q0 169 120.5 289.5t289.5 120.5h614q164 0 287 -122t123 -288v-614q0 -169 -120.5 -289.5t-289.5 -120.5h-614q-170 0 -290 120t-120 290zM287 410q0 -85 60 -145t145 -60h614q85 0 145 60t60 145v614q0 85 -60 145t-145 60h-614q-85 0 -145 -60t-60 -145 v-614z" />
<glyph unicode="p" d="M102 0v1434h1024q81 0 155.5 -32.5t129.5 -87t89 -130.5t36 -160v-205q0 -107 -54 -201t-149 -151t-207 -57h-819v-410h-205zM307 614h819q85 0 145 60t60 145v205q0 85 -60 145t-145 60h-819v-615z" />
<glyph unicode="q" d="M82 410v614q0 107 54 201.5t149 151.5t207 57h614q163 0 286.5 -121t123.5 -289v-614q0 -115 -58 -209l58 -56v-145h-146l-55 57q-92 -57 -209 -57h-614q-166 0 -288 119.5t-122 290.5zM287 410q0 -85 60 -145t145 -60h614q26 0 53 6l-258 258v145h146l258 -258 q6 27 6 54v614q0 85 -60 145t-145 60h-614q-85 0 -145 -60t-60 -145v-614z" />
<glyph unicode="r" horiz-adv-x="1617" d="M102 0v1434h1024q163 0 286.5 -121t123.5 -289v-205q0 -131 -79 -238.5t-206 -150.5l285 -285v-145h-145l-410 410h-674v-410h-205zM307 614h819q85 0 145 60t60 145v205q0 85 -60 145t-145 60h-819v-615z" />
<glyph unicode="s" d="M82 410h205q0 -85 60 -145t145 -60h614q85 0 145 60t60 145t-60 144.5t-145 59.5h-614q-166 0 -288 119.5t-122 290.5q0 107 54 201.5t149 151.5t207 57h614q81 0 155.5 -32.5t129.5 -87t89 -130.5t36 -160h-205q0 85 -60 145t-145 60h-614q-85 0 -145 -60t-60 -145 t60 -145t145 -60h614q163 0 286.5 -120.5t123.5 -288.5q0 -107 -54 -201.5t-149 -151.5t-207 -57h-614q-110 0 -203 54t-148.5 148t-58.5 208z" />
<glyph unicode="t" horiz-adv-x="1433" d="M0 1229v205h1434v-205h-615v-1229h-205v1229h-614z" />
<glyph unicode="u" horiz-adv-x="1638" d="M102 410v1024h205v-1024q0 -85 60 -145t145 -60h614q85 0 145 60t60 145v1024h205v-1024q0 -107 -54 -201.5t-149 -151.5t-207 -57h-614q-166 0 -288 119.5t-122 290.5z" />
<glyph unicode="v" horiz-adv-x="1515" d="M41 1024v410h205v-361l442 -868h139l443 868v361h205v-410l-523 -1024h-389z" />
<glyph unicode="w" horiz-adv-x="2048" d="M102 410v1024h205v-1024q0 -85 60 -145t145 -60h205q85 0 145 60t60 145v1024h204v-1024q0 -85 60 -145t145 -60h205q85 0 145 60t60 145v1024h205v-1024q0 -107 -54 -201.5t-149 -151.5t-207 -57h-205q-183 0 -307 139q-124 -139 -307 -139h-205q-166 0 -288 119.5 t-122 290.5z" />
<glyph unicode="x" horiz-adv-x="1556" d="M61 0v303l547 412l-547 411v308h205v-205l512 -385l512 385v205h205v-308l-547 -411l547 -412v-303h-205v201l-512 385l-512 -385v-201h-205z" />
<glyph unicode="y" horiz-adv-x="1515" d="M41 1126v308h205v-224l512 -563l512 563v224h205v-308l-615 -675v-451h-205v451z" />
<glyph unicode="z" horiz-adv-x="1556" d="M61 0v205l1137 1024h-1137v205h1434v-205l-1128 -1024h1128v-205h-1434z" />
<glyph unicode="{" horiz-adv-x="655" d="M41 614v205q85 0 145 60t60 145v205q0 166 119 285.5t290 123.5v-204q-85 0 -144.5 -60t-59.5 -145v-205q0 -182 -140 -307q140 -125 140 -307v-205q0 -85 59.5 -145t144.5 -60v-205q-107 0 -201 54t-151 149t-57 207v205q0 85 -60 144.5t-145 59.5z" />
<glyph unicode="|" horiz-adv-x="409" d="M102 -205v1843h205v-1843h-205z" />
<glyph unicode="}" horiz-adv-x="655" d="M0 0q85 0 145 60t60 145v205q0 183 139 307q-139 124 -139 307v205q0 85 -60 145t-145 60v204q163 0 286.5 -120.5t123.5 -288.5v-205q0 -85 59.5 -145t144.5 -60v-205q-85 0 -144.5 -59.5t-59.5 -144.5v-205q0 -81 -32.5 -155.5t-87 -129.5t-130.5 -89t-160 -36v205z " />
<glyph unicode="~" horiz-adv-x="1208" d="M41 1016v51l410 410l307 -308l264 265h51l94 -95v-51l-409 -409l-307 307l-265 -264h-51z" />
<glyph unicode="&#xa9;" horiz-adv-x="2007" d="M82 205v1024q0 169 120.5 289t289.5 120h1024q164 0 286.5 -121.5t122.5 -287.5v-1024q0 -169 -120 -289.5t-289 -120.5h-1024q-170 0 -290 120t-120 290zM287 205q0 -85 60 -145t145 -60h1024q85 0 144.5 60t59.5 145v1024q0 85 -59.5 145t-144.5 60h-1024 q-85 0 -145 -60t-60 -145v-1024zM494 498v436q0 117 84.5 201.5t205.5 87.5h439q117 0 202 -84.5t88 -204.5h-145q0 60 -42.5 101.5t-102.5 41.5h-439q-60 0 -102.5 -41.5t-42.5 -101.5v-436q0 -60 42.5 -103t102.5 -43h439q60 0 102.5 43t42.5 103h145q0 -117 -84.5 -203 t-205.5 -86h-439q-118 0 -204 83.5t-86 205.5z" />
<glyph unicode="&#xab;" horiz-adv-x="1167" d="M41 571v86l573 572h50l94 -94v-52l-469 -469l469 -469v-51l-94 -94h-50zM530 571v86l453 449h49l94 -94v-51l-348 -347l348 -346v-51l-94 -94h-49z" />
<glyph unicode="&#xad;" horiz-adv-x="1003" d="M41 614v205h922v-205h-922z" />
<glyph unicode="&#xae;" horiz-adv-x="2007" d="M82 205v1024q0 169 120.5 289t289.5 120h1024q164 0 286.5 -121.5t122.5 -287.5v-1024q0 -169 -120 -289.5t-289 -120.5h-1024q-170 0 -290 120t-120 290zM287 205q0 -85 60 -145t145 -60h1024q85 0 144.5 60t59.5 145v1024q0 85 -59.5 145t-144.5 60h-1024 q-85 0 -145 -60t-60 -145v-1024zM496 207v1020h725q116 0 203 -85.5t87 -205.5v-145q0 -94 -56 -171t-146 -106l202 -203v-104h-104l-289 291h-477v-291h-145zM641 645h580q60 0 102.5 43t42.5 103v145q0 60 -42.5 102.5t-102.5 42.5h-580v-436z" />
<glyph unicode="&#xbb;" horiz-adv-x="1167" d="M41 217v51l348 346l-348 347v51l94 94h49l453 -449v-86l-453 -448h-49zM410 94v51l469 469l-469 469v52l94 94h49l573 -572v-86l-573 -571h-49z" />
<glyph unicode="&#x401;" d="M102 0v1434h1434v-205h-1229v-410h1024v-205h-1024v-409h1229v-205h-1434zM457 1597v205h205v-205h-205zM989 1597v205h205v-205h-205z" />
<glyph unicode="&#x402;" horiz-adv-x="1740" d="M0 1229v205h860v-205h-328v-350h758q166 0 288 -119.5t122 -290.5v-141q0 -166 -119.5 -286t-290.5 -124v205q85 0 145 60t60 145v141q0 85 -60 145t-145 60h-758v-674h-204v1229h-328z" />
<glyph unicode="&#x403;" horiz-adv-x="1331" d="M102 0v1434h1229v-205h-1024v-1229h-205zM573 1546l267 328h245l-266 -328h-246z" />
<glyph unicode="&#x404;" horiz-adv-x="1576" d="M82 410v614q0 168 123.5 289t286.5 121h614q112 0 207 -57t149 -151.5t54 -201.5h-205q0 85 -60 145t-145 60h-614q-85 0 -145 -60t-60 -145v-205h614v-205h-614v-204q0 -85 60 -145t145 -60h614q85 0 145 60t60 145h205q-3 -114 -58.5 -208t-148.5 -148t-203 -54h-614 q-112 0 -207 57t-149 151.5t-54 201.5z" />
<glyph unicode="&#x405;" d="M82 410h205q0 -85 60 -145t145 -60h614q85 0 145 60t60 145t-60 144.5t-145 59.5h-614q-166 0 -288 119.5t-122 290.5q0 107 54 201.5t149 151.5t207 57h614q81 0 155.5 -32.5t129.5 -87t89 -130.5t36 -160h-205q0 85 -60 145t-145 60h-614q-85 0 -145 -60t-60 -145 t60 -145t145 -60h614q163 0 286.5 -120.5t123.5 -288.5q0 -107 -54 -201.5t-149 -151.5t-207 -57h-614q-110 0 -203 54t-148.5 148t-58.5 208z" />
<glyph unicode="&#x406;" horiz-adv-x="409" d="M102 0v1434h205v-1434h-205z" />
<glyph unicode="&#x407;" horiz-adv-x="409" d="M-102 1556v205h204v-205h-204zM102 0v1434h205v-1434h-205zM307 1556v205h205v-205h-205z" />
<glyph unicode="&#x408;" horiz-adv-x="1576" d="M41 410h205q0 -85 60 -145t145 -60h614q85 0 145 60t60 145v1024h205v-1024q0 -107 -54 -201.5t-149 -151.5t-207 -57h-614q-110 0 -203 54t-148.5 148t-58.5 208z" />
<glyph unicode="&#x409;" horiz-adv-x="2457" d="M102 0v1024q0 167 120 288.5t290 121.5h840v-512h635q108 0 201 -54.5t149 -149t59 -206.5v-102q0 -107 -54 -201.5t-148.5 -151.5t-206.5 -57h-840v1229h-635q-85 0 -145 -60t-60 -145v-1024h-205zM1352 205h635q85 0 144.5 60t59.5 145v102q0 85 -59.5 145t-144.5 60 h-635v-512z" />
<glyph unicode="&#x40a;" horiz-adv-x="2457" d="M102 0v1434h205v-533h840v533h205v-533h635q108 0 201 -54.5t149 -148.5t59 -206v-82q0 -107 -54 -201.5t-148.5 -151.5t-206.5 -57h-840v696h-840v-696h-205zM1352 205h635q85 0 144.5 60t59.5 145v82q0 85 -59.5 144.5t-144.5 59.5h-635v-491z" />
<glyph unicode="&#x40b;" horiz-adv-x="1761" d="M0 1229v205h860v-205h-328v-350h758q166 0 288 -119.5t122 -290.5v-469h-205v469q0 85 -60 145t-145 60h-758v-674h-204v1229h-328z" />
<glyph unicode="&#x40c;" horiz-adv-x="1536" d="M102 0v1434h205v-615h326l614 615h289l-717 -717l717 -717h-289l-614 614h-326v-614h-205zM573 1546l267 328h245l-266 -328h-246z" />
<glyph unicode="&#x40e;" horiz-adv-x="1617" d="M82 1024v410h205v-410q0 -85 60 -145t145 -60h819v615h205v-1024q0 -107 -54 -201.5t-149 -151.5t-207 -57h-574q-110 0 -203 54t-148 148t-58 208h205q0 -85 59.5 -145t144.5 -60h574q85 0 145 60t60 145v204h-819q-166 0 -288 119.5t-122 290.5zM410 1843h204 q0 -85 60 -145t145 -60t145 60t60 145h205q0 -107 -54 -201t-149 -151t-207 -57q-110 0 -203 53.5t-148 147.5t-58 208z" />
<glyph unicode="&#x40f;" horiz-adv-x="1638" d="M102 0v1434h205v-1229h1024v1229h205v-1434h-614v-287h-205v287h-615z" />
<glyph unicode="&#x410;" horiz-adv-x="1638" d="M102 0v1024q0 107 54 201.5t149 151.5t207 57h614q81 0 155.5 -32.5t129.5 -87t89 -130.5t36 -160v-1024h-205v410h-1024v-410h-205zM307 614h1024v410q0 85 -60 145t-145 60h-614q-85 0 -145 -60t-60 -145v-410z" />
<glyph unicode="&#x411;" d="M102 0v1434h1229v-205h-1024v-342h819q81 0 155.5 -32.5t129.5 -87t89 -130.5t36 -160v-67q0 -107 -54 -201.5t-149 -151.5t-207 -57h-1024zM307 205h819q85 0 145 60t60 145v67q0 85 -60 145t-145 60h-819v-477z" />
<glyph unicode="&#x412;" horiz-adv-x="1617" d="M102 0v1434h1024q163 0 286.5 -121t123.5 -289q0 -183 -139 -307q139 -124 139 -307q0 -166 -119.5 -286t-290.5 -124h-1024zM307 205h819q85 0 145 60t60 145t-60 144.5t-145 59.5h-819v-409zM307 819h819q85 0 145 60t60 145t-60 145t-145 60h-819v-410z" />
<glyph unicode="&#x413;" horiz-adv-x="1331" d="M102 0v1434h1229v-205h-1024v-1229h-205z" />
<glyph unicode="&#x414;" horiz-adv-x="1843" d="M0 0v205h205v819q0 107 54 201.5t148.5 151.5t206.5 57h1024v-1229h205v-205h-1843zM410 205h1024v1024h-820q-85 0 -144.5 -60t-59.5 -145v-819z" />
<glyph unicode="&#x415;" d="M102 0v1434h1434v-205h-1229v-410h1024v-205h-1024v-409h1229v-205h-1434z" />
<glyph unicode="&#x416;" horiz-adv-x="1925" d="M41 0v322l711 393l-711 393v326h205v-205l614 -340v545h205v-545l614 340v205h205v-326l-710 -393l710 -393v-322h-205v201l-614 340v-541h-205v541l-614 -340v-201h-205z" />
<glyph unicode="&#x417;" horiz-adv-x="1576" d="M61 410h205q0 -85 60 -145t145 -60h614q85 0 145 60t60 145t-60 144.5t-145 59.5h-409v205h409q85 0 145 60t60 145t-60 145t-145 60h-614q-85 0 -145 -60t-60 -145h-205q0 107 54 201.5t149 151.5t207 57h614q163 0 286.5 -121t123.5 -289q0 -183 -139 -307 q139 -124 139 -307q0 -107 -54 -201.5t-149 -151.5t-207 -57h-614q-110 0 -203 54t-148.5 148t-58.5 208z" />
<glyph unicode="&#x418;" horiz-adv-x="1638" d="M102 0v1434h205v-1137l1024 1137h205v-1434h-205v1157l-1024 -1157h-205z" />
<glyph unicode="&#x419;" horiz-adv-x="1638" d="M102 0v1434h205v-1137l1024 1137h205v-1434h-205v1157l-1024 -1157h-205zM410 1843h204q0 -85 60 -145t145 -60t145 60t60 145h205q0 -107 -54 -201t-149 -151t-207 -57q-110 0 -203 53.5t-148 147.5t-58 208z" />
<glyph unicode="&#x41a;" horiz-adv-x="1536" d="M102 0v1434h205v-615h326l614 615h289l-717 -717l717 -717h-289l-614 614h-326v-614h-205z" />
<glyph unicode="&#x41b;" horiz-adv-x="1638" d="M102 0v1024q0 166 119.5 286t290.5 124h1024v-1434h-205v1229h-819q-85 0 -145 -60t-60 -145v-1024h-205z" />
<glyph unicode="&#x41c;" horiz-adv-x="1843" d="M102 0v1434h205l615 -887l614 887h205v-1434h-205v1067l-614 -887l-615 887v-1067h-205z" />
<glyph unicode="&#x41d;" horiz-adv-x="1638" d="M102 0v1434h205v-615h1024v615h205v-1434h-205v614h-1024v-614h-205z" />
<glyph unicode="&#x41e;" d="M82 410v614q0 169 120.5 289.5t289.5 120.5h614q164 0 287 -122t123 -288v-614q0 -169 -120.5 -289.5t-289.5 -120.5h-614q-170 0 -290 120t-120 290zM287 410q0 -85 60 -145t145 -60h614q85 0 145 60t60 145v614q0 85 -60 145t-145 60h-614q-85 0 -145 -60t-60 -145 v-614z" />
<glyph unicode="&#x41f;" horiz-adv-x="1638" d="M102 0v1434h1434v-1434h-205v1229h-1024v-1229h-205z" />
<glyph unicode="&#x420;" d="M102 0v1434h1024q81 0 155.5 -32.5t129.5 -87t89 -130.5t36 -160v-205q0 -107 -54 -201t-149 -151t-207 -57h-819v-410h-205zM307 614h819q85 0 145 60t60 145v205q0 85 -60 145t-145 60h-819v-615z" />
<glyph unicode="&#x421;" horiz-adv-x="1576" d="M82 410v614q0 166 119.5 286t290.5 124h614q81 0 155.5 -32.5t129.5 -87t89 -130.5t36 -160h-205q0 85 -60 145t-145 60h-614q-85 0 -145 -60t-60 -145v-614q0 -85 60 -145t145 -60h614q85 0 145 60t60 145h205q0 -107 -54 -201.5t-149 -151.5t-207 -57h-614 q-166 0 -288 119.5t-122 290.5z" />
<glyph unicode="&#x422;" horiz-adv-x="1433" d="M0 1229v205h1434v-205h-615v-1229h-205v1229h-614z" />
<glyph unicode="&#x423;" horiz-adv-x="1617" d="M82 1024v410h205v-410q0 -85 60 -145t145 -60h819v615h205v-1024q0 -107 -54 -201.5t-149 -151.5t-207 -57h-574q-110 0 -203 54t-148 148t-58 208h205q0 -85 59.5 -145t144.5 -60h574q85 0 145 60t60 145v204h-819q-166 0 -288 119.5t-122 290.5z" />
<glyph unicode="&#x424;" horiz-adv-x="1761" d="M82 553v328q0 169 120.5 289t289.5 120h286v205h205v-205h287q167 0 288 -121t121 -288v-328q0 -169 -120 -289.5t-289 -120.5h-287v-204h-205v204h-286q-170 0 -290 120t-120 290zM287 553q0 -85 60 -145t145 -60h286v737h-286q-85 0 -145 -59.5t-60 -144.5v-328z M983 348h287q85 0 145 60t60 145v328q0 85 -60 144.5t-145 59.5h-287v-737z" />
<glyph unicode="&#x425;" horiz-adv-x="1556" d="M61 0v303l547 412l-547 411v308h205v-205l512 -385l512 385v205h205v-308l-547 -411l547 -412v-303h-205v201l-512 385l-512 -385v-201h-205z" />
<glyph unicode="&#x426;" horiz-adv-x="1761" d="M102 0v1434h205v-1229h1024v1229h205v-1229h205v-410h-205v205h-1434z" />
<glyph unicode="&#x427;" horiz-adv-x="1617" d="M82 924v510h205v-510q0 -85 60 -145t145 -60h819v715h205v-1434h-205v514h-819q-166 0 -288 119.5t-122 290.5z" />
<glyph unicode="&#x428;" horiz-adv-x="2048" d="M102 0v1434h205v-1229h615v1229h204v-1229h615v1229h205v-1434h-1844z" />
<glyph unicode="&#x429;" horiz-adv-x="2211" d="M102 0v1434h205v-1229h615v1229h204v-1229h615v1229h205v-1229h204v-410h-204v205h-1844z" />
<glyph unicode="&#x42a;" horiz-adv-x="1740" d="M41 1229v205h410v-512h819q163 0 286 -121t123 -289v-102q0 -107 -54 -201.5t-148.5 -151.5t-206.5 -57h-1024v1229h-205zM451 205h819q85 0 145 60t60 145v102q0 85 -60 145t-145 60h-819v-512z" />
<glyph unicode="&#x42b;" horiz-adv-x="2048" d="M102 0v1434h205v-512h819q81 0 155.5 -32.5t129.5 -87t89 -130.5t36 -160v-102q0 -107 -54 -201.5t-149 -151.5t-207 -57h-1024zM307 205h819q85 0 145 60t60 145v102q0 85 -60 145t-145 60h-819v-512zM1741 0v1434h205v-1434h-205z" />
<glyph unicode="&#x42c;" d="M102 0v1434h205v-512h819q81 0 155.5 -32.5t129.5 -87t89 -130.5t36 -160v-102q0 -107 -54 -201.5t-149 -151.5t-207 -57h-1024zM307 205h819q85 0 145 60t60 145v102q0 85 -60 145t-145 60h-819v-512z" />
<glyph unicode="&#x42d;" horiz-adv-x="1576" d="M61 410h205q0 -85 60 -145t145 -60h614q85 0 145 60t60 145v204h-614v205h614v205q0 85 -60 145t-145 60h-614q-85 0 -145 -60t-60 -145h-205q0 107 54 201.5t149 151.5t207 57h614q163 0 286.5 -121t123.5 -289v-614q0 -107 -54 -201.5t-149 -151.5t-207 -57h-614 q-110 0 -203 54t-148.5 148t-58.5 208z" />
<glyph unicode="&#x42e;" horiz-adv-x="2027" d="M102 0v1434h205v-615h205v205q0 107 54 201.5t149 151.5t207 57h614q163 0 286.5 -121t123.5 -289v-614q0 -107 -54 -201.5t-149 -151.5t-207 -57h-614q-166 0 -288 119.5t-122 290.5v204h-205v-614h-205zM717 410q0 -85 60 -145t145 -60h614q85 0 145 60t60 145v614 q0 85 -60 145t-145 60h-614q-85 0 -145 -60t-60 -145v-614z" />
<glyph unicode="&#x42f;" horiz-adv-x="1638" d="M102 0v145l285 285q-125 40 -205 147t-80 242v205q0 107 54 201.5t149 151.5t207 57h1024v-1434h-205v410h-674l-409 -410h-146zM307 819q0 -85 60 -145t145 -60h819v615h-819q-85 0 -145 -60t-60 -145v-205z" />
<glyph unicode="&#x430;" horiz-adv-x="1638" d="M102 0v1024q0 107 54 201.5t149 151.5t207 57h614q81 0 155.5 -32.5t129.5 -87t89 -130.5t36 -160v-1024h-205v410h-1024v-410h-205zM307 614h1024v410q0 85 -60 145t-145 60h-614q-85 0 -145 -60t-60 -145v-410z" />
<glyph unicode="&#x431;" d="M102 0v1434h1229v-205h-1024v-342h819q81 0 155.5 -32.5t129.5 -87t89 -130.5t36 -160v-67q0 -107 -54 -201.5t-149 -151.5t-207 -57h-1024zM307 205h819q85 0 145 60t60 145v67q0 85 -60 145t-145 60h-819v-477z" />
<glyph unicode="&#x432;" horiz-adv-x="1617" d="M102 0v1434h1024q163 0 286.5 -121t123.5 -289q0 -183 -139 -307q139 -124 139 -307q0 -166 -119.5 -286t-290.5 -124h-1024zM307 205h819q85 0 145 60t60 145t-60 144.5t-145 59.5h-819v-409zM307 819h819q85 0 145 60t60 145t-60 145t-145 60h-819v-410z" />
<glyph unicode="&#x433;" horiz-adv-x="1331" d="M102 0v1434h1229v-205h-1024v-1229h-205z" />
<glyph unicode="&#x434;" horiz-adv-x="1843" d="M0 0v205h205v819q0 107 54 201.5t148.5 151.5t206.5 57h1024v-1229h205v-205h-1843zM410 205h1024v1024h-820q-85 0 -144.5 -60t-59.5 -145v-819z" />
<glyph unicode="&#x435;" d="M102 0v1434h1434v-205h-1229v-410h1024v-205h-1024v-409h1229v-205h-1434z" />
<glyph unicode="&#x436;" horiz-adv-x="1925" d="M41 0v322l711 393l-711 393v326h205v-205l614 -340v545h205v-545l614 340v205h205v-326l-710 -393l710 -393v-322h-205v201l-614 340v-541h-205v541l-614 -340v-201h-205z" />
<glyph unicode="&#x437;" horiz-adv-x="1576" d="M61 410h205q0 -85 60 -145t145 -60h614q85 0 145 60t60 145t-60 144.5t-145 59.5h-409v205h409q85 0 145 60t60 145t-60 145t-145 60h-614q-85 0 -145 -60t-60 -145h-205q0 107 54 201.5t149 151.5t207 57h614q163 0 286.5 -121t123.5 -289q0 -183 -139 -307 q139 -124 139 -307q0 -107 -54 -201.5t-149 -151.5t-207 -57h-614q-110 0 -203 54t-148.5 148t-58.5 208z" />
<glyph unicode="&#x438;" horiz-adv-x="1638" d="M102 0v1434h205v-1137l1024 1137h205v-1434h-205v1157l-1024 -1157h-205z" />
<glyph unicode="&#x439;" horiz-adv-x="1638" d="M102 0v1434h205v-1137l1024 1137h205v-1434h-205v1157l-1024 -1157h-205zM410 1843h204q0 -85 60 -145t145 -60t145 60t60 145h205q0 -107 -54 -201t-149 -151t-207 -57q-110 0 -203 53.5t-148 147.5t-58 208z" />
<glyph unicode="&#x43a;" horiz-adv-x="1536" d="M102 0v1434h205v-615h326l614 615h289l-717 -717l717 -717h-289l-614 614h-326v-614h-205z" />
<glyph unicode="&#x43b;" horiz-adv-x="1638" d="M102 0v1024q0 166 119.5 286t290.5 124h1024v-1434h-205v1229h-819q-85 0 -145 -60t-60 -145v-1024h-205z" />
<glyph unicode="&#x43c;" horiz-adv-x="1843" d="M102 0v1434h205l615 -887l614 887h205v-1434h-205v1067l-614 -887l-615 887v-1067h-205z" />
<glyph unicode="&#x43d;" horiz-adv-x="1638" d="M102 0v1434h205v-615h1024v615h205v-1434h-205v614h-1024v-614h-205z" />
<glyph unicode="&#x43e;" d="M82 410v614q0 169 120.5 289.5t289.5 120.5h614q164 0 287 -122t123 -288v-614q0 -169 -120.5 -289.5t-289.5 -120.5h-614q-170 0 -290 120t-120 290zM287 410q0 -85 60 -145t145 -60h614q85 0 145 60t60 145v614q0 85 -60 145t-145 60h-614q-85 0 -145 -60t-60 -145 v-614z" />
<glyph unicode="&#x43f;" horiz-adv-x="1638" d="M102 0v1434h1434v-1434h-205v1229h-1024v-1229h-205z" />
<glyph unicode="&#x440;" d="M102 0v1434h1024q81 0 155.5 -32.5t129.5 -87t89 -130.5t36 -160v-205q0 -107 -54 -201t-149 -151t-207 -57h-819v-410h-205zM307 614h819q85 0 145 60t60 145v205q0 85 -60 145t-145 60h-819v-615z" />
<glyph unicode="&#x441;" horiz-adv-x="1576" d="M82 410v614q0 166 119.5 286t290.5 124h614q81 0 155.5 -32.5t129.5 -87t89 -130.5t36 -160h-205q0 85 -60 145t-145 60h-614q-85 0 -145 -60t-60 -145v-614q0 -85 60 -145t145 -60h614q85 0 145 60t60 145h205q0 -107 -54 -201.5t-149 -151.5t-207 -57h-614 q-166 0 -288 119.5t-122 290.5z" />
<glyph unicode="&#x442;" horiz-adv-x="1433" d="M0 1229v205h1434v-205h-615v-1229h-205v1229h-614z" />
<glyph unicode="&#x443;" horiz-adv-x="1617" d="M82 1024v410h205v-410q0 -85 60 -145t145 -60h819v615h205v-1024q0 -107 -54 -201.5t-149 -151.5t-207 -57h-574q-110 0 -203 54t-148 148t-58 208h205q0 -85 59.5 -145t144.5 -60h574q85 0 145 60t60 145v204h-819q-166 0 -288 119.5t-122 290.5z" />
<glyph unicode="&#x444;" horiz-adv-x="1761" d="M82 553v328q0 169 120.5 289t289.5 120h286v205h205v-205h287q167 0 288 -121t121 -288v-328q0 -169 -120 -289.5t-289 -120.5h-287v-204h-205v204h-286q-170 0 -290 120t-120 290zM287 553q0 -85 60 -145t145 -60h286v737h-286q-85 0 -145 -59.5t-60 -144.5v-328z M983 348h287q85 0 145 60t60 145v328q0 85 -60 144.5t-145 59.5h-287v-737z" />
<glyph unicode="&#x445;" horiz-adv-x="1556" d="M61 0v303l547 412l-547 411v308h205v-205l512 -385l512 385v205h205v-308l-547 -411l547 -412v-303h-205v201l-512 385l-512 -385v-201h-205z" />
<glyph unicode="&#x446;" horiz-adv-x="1761" d="M102 0v1434h205v-1229h1024v1229h205v-1229h205v-410h-205v205h-1434z" />
<glyph unicode="&#x447;" horiz-adv-x="1617" d="M82 924v510h205v-510q0 -85 60 -145t145 -60h819v715h205v-1434h-205v514h-819q-166 0 -288 119.5t-122 290.5z" />
<glyph unicode="&#x448;" horiz-adv-x="2048" d="M102 0v1434h205v-1229h615v1229h204v-1229h615v1229h205v-1434h-1844z" />
<glyph unicode="&#x449;" horiz-adv-x="2211" d="M102 0v1434h205v-1229h615v1229h204v-1229h615v1229h205v-1229h204v-410h-204v205h-1844z" />
<glyph unicode="&#x44a;" horiz-adv-x="1740" d="M41 1229v205h410v-512h819q163 0 286 -121t123 -289v-102q0 -107 -54 -201.5t-148.5 -151.5t-206.5 -57h-1024v1229h-205zM451 205h819q85 0 145 60t60 145v102q0 85 -60 145t-145 60h-819v-512z" />
<glyph unicode="&#x44b;" horiz-adv-x="2048" d="M102 0v1434h205v-512h819q81 0 155.5 -32.5t129.5 -87t89 -130.5t36 -160v-102q0 -107 -54 -201.5t-149 -151.5t-207 -57h-1024zM307 205h819q85 0 145 60t60 145v102q0 85 -60 145t-145 60h-819v-512zM1741 0v1434h205v-1434h-205z" />
<glyph unicode="&#x44c;" d="M102 0v1434h205v-512h819q81 0 155.5 -32.5t129.5 -87t89 -130.5t36 -160v-102q0 -107 -54 -201.5t-149 -151.5t-207 -57h-1024zM307 205h819q85 0 145 60t60 145v102q0 85 -60 145t-145 60h-819v-512z" />
<glyph unicode="&#x44d;" horiz-adv-x="1576" d="M61 410h205q0 -85 60 -145t145 -60h614q85 0 145 60t60 145v204h-614v205h614v205q0 85 -60 145t-145 60h-614q-85 0 -145 -60t-60 -145h-205q0 107 54 201.5t149 151.5t207 57h614q163 0 286.5 -121t123.5 -289v-614q0 -107 -54 -201.5t-149 -151.5t-207 -57h-614 q-110 0 -203 54t-148.5 148t-58.5 208z" />
<glyph unicode="&#x44e;" horiz-adv-x="2027" d="M102 0v1434h205v-615h205v205q0 107 54 201.5t149 151.5t207 57h614q163 0 286.5 -121t123.5 -289v-614q0 -107 -54 -201.5t-149 -151.5t-207 -57h-614q-166 0 -288 119.5t-122 290.5v204h-205v-614h-205zM717 410q0 -85 60 -145t145 -60h614q85 0 145 60t60 145v614 q0 85 -60 145t-145 60h-614q-85 0 -145 -60t-60 -145v-614z" />
<glyph unicode="&#x44f;" horiz-adv-x="1638" d="M102 0v145l285 285q-125 40 -205 147t-80 242v205q0 107 54 201.5t149 151.5t207 57h1024v-1434h-205v410h-674l-409 -410h-146zM307 819q0 -85 60 -145t145 -60h819v615h-819q-85 0 -145 -60t-60 -145v-205z" />
<glyph unicode="&#x451;" d="M102 0v1434h1434v-205h-1229v-410h1024v-205h-1024v-409h1229v-205h-1434zM457 1597v205h205v-205h-205zM989 1597v205h205v-205h-205z" />
<glyph unicode="&#x452;" horiz-adv-x="1761" d="M0 1229v205h860v-205h-328v-350h758q166 0 288 -119.5t122 -290.5v-141q0 -166 -119.5 -286t-290.5 -124v205q85 0 145 60t60 145v141q0 85 -60 145t-145 60h-758v-674h-204v1229h-328z" />
<glyph unicode="&#x453;" horiz-adv-x="1331" d="M102 0v1434h1229v-205h-1024v-1229h-205zM573 1546l267 328h245l-266 -328h-246z" />
<glyph unicode="&#x454;" horiz-adv-x="1576" d="M82 410v614q0 168 123.5 289t286.5 121h614q112 0 207 -57t149 -151.5t54 -201.5h-205q0 85 -60 145t-145 60h-614q-85 0 -145 -60t-60 -145v-205h614v-205h-614v-204q0 -85 60 -145t145 -60h614q85 0 145 60t60 145h205q-3 -114 -58.5 -208t-148.5 -148t-203 -54h-614 q-112 0 -207 57t-149 151.5t-54 201.5z" />
<glyph unicode="&#x455;" d="M82 410h205q0 -85 60 -145t145 -60h614q85 0 145 60t60 145t-60 144.5t-145 59.5h-614q-166 0 -288 119.5t-122 290.5q0 107 54 201.5t149 151.5t207 57h614q81 0 155.5 -32.5t129.5 -87t89 -130.5t36 -160h-205q0 85 -60 145t-145 60h-614q-85 0 -145 -60t-60 -145 t60 -145t145 -60h614q163 0 286.5 -120.5t123.5 -288.5q0 -107 -54 -201.5t-149 -151.5t-207 -57h-614q-110 0 -203 54t-148.5 148t-58.5 208z" />
<glyph unicode="&#x456;" horiz-adv-x="409" d="M102 0v1434h205v-1434h-205z" />
<glyph unicode="&#x457;" horiz-adv-x="409" d="M-102 1556v205h204v-205h-204zM102 0v1434h205v-1434h-205zM307 1556v205h205v-205h-205z" />
<glyph unicode="&#x458;" horiz-adv-x="1576" d="M41 410h205q0 -85 60 -145t145 -60h614q85 0 145 60t60 145v1024h205v-1024q0 -107 -54 -201.5t-149 -151.5t-207 -57h-614q-110 0 -203 54t-148.5 148t-58.5 208z" />
<glyph unicode="&#x459;" horiz-adv-x="2457" d="M102 0v1024q0 167 120 288.5t290 121.5h840v-512h635q108 0 201 -54.5t149 -149t59 -206.5v-102q0 -107 -54 -201.5t-148.5 -151.5t-206.5 -57h-840v1229h-635q-85 0 -145 -60t-60 -145v-1024h-205zM1352 205h635q85 0 144.5 60t59.5 145v102q0 85 -59.5 145t-144.5 60 h-635v-512z" />
<glyph unicode="&#x45a;" horiz-adv-x="2457" d="M102 0v1434h205v-533h840v533h205v-533h635q108 0 201 -54.5t149 -148.5t59 -206v-82q0 -107 -54 -201.5t-148.5 -151.5t-206.5 -57h-840v696h-840v-696h-205zM1352 205h635q85 0 144.5 60t59.5 145v82q0 85 -59.5 144.5t-144.5 59.5h-635v-491z" />
<glyph unicode="&#x45b;" horiz-adv-x="1761" d="M0 1229v205h860v-205h-328v-350h758q166 0 288 -119.5t122 -290.5v-469h-205v469q0 85 -60 145t-145 60h-758v-674h-204v1229h-328z" />
<glyph unicode="&#x45c;" horiz-adv-x="1536" d="M102 0v1434h205v-615h326l614 615h289l-717 -717l717 -717h-289l-614 614h-326v-614h-205zM573 1546l267 328h245l-266 -328h-246z" />
<glyph unicode="&#x45e;" horiz-adv-x="1617" d="M82 1024v410h205v-410q0 -85 60 -145t145 -60h819v615h205v-1024q0 -107 -54 -201.5t-149 -151.5t-207 -57h-574q-110 0 -203 54t-148 148t-58 208h205q0 -85 59.5 -145t144.5 -60h574q85 0 145 60t60 145v204h-819q-166 0 -288 119.5t-122 290.5zM410 1843h204 q0 -85 60 -145t145 -60t145 60t60 145h205q0 -107 -54 -201t-149 -151t-207 -57q-110 0 -203 53.5t-148 147.5t-58 208z" />
<glyph unicode="&#x45f;" horiz-adv-x="1638" d="M102 0v1434h205v-1229h1024v1229h205v-1434h-614v-287h-205v287h-615z" />
<glyph unicode="&#x490;" horiz-adv-x="1331" d="M102 0v1434h1024v204h205v-409h-1024v-1229h-205z" />
<glyph unicode="&#x491;" horiz-adv-x="1331" d="M102 0v1434h1024v204h205v-409h-1024v-1229h-205z" />
<glyph unicode="&#x2000;" horiz-adv-x="937" />
<glyph unicode="&#x2001;" horiz-adv-x="1874" />
<glyph unicode="&#x2002;" horiz-adv-x="937" />
<glyph unicode="&#x2003;" horiz-adv-x="1874" />
<glyph unicode="&#x2004;" horiz-adv-x="624" />
<glyph unicode="&#x2005;" horiz-adv-x="468" />
<glyph unicode="&#x2006;" horiz-adv-x="312" />
<glyph unicode="&#x2007;" horiz-adv-x="312" />
<glyph unicode="&#x2008;" horiz-adv-x="234" />
<glyph unicode="&#x2009;" horiz-adv-x="374" />
<glyph unicode="&#x200a;" horiz-adv-x="104" />
<glyph unicode="&#x2010;" horiz-adv-x="1003" d="M41 614v205h922v-205h-922z" />
<glyph unicode="&#x2011;" horiz-adv-x="1003" d="M41 614v205h922v-205h-922z" />
<glyph unicode="&#x2012;" horiz-adv-x="1003" d="M41 614v205h922v-205h-922z" />
<glyph unicode="&#x2013;" horiz-adv-x="1208" d="M41 614v205h1126v-205h-1126z" />
<glyph unicode="&#x2014;" horiz-adv-x="1617" d="M41 614v205h1536v-205h-1536z" />
<glyph unicode="&#x2018;" horiz-adv-x="409" d="M102 1024v410h205v-410h-205z" />
<glyph unicode="&#x2019;" horiz-adv-x="409" d="M102 1024v410h205v-410h-205z" />
<glyph unicode="&#x201a;" horiz-adv-x="409" d="M102 -205v410h205v-410h-205z" />
<glyph unicode="&#x201c;" horiz-adv-x="819" d="M102 1024v410h205v-410h-205zM512 1024v410h205v-410h-205z" />
<glyph unicode="&#x201d;" horiz-adv-x="819" d="M102 1024v410h205v-410h-205zM512 1024v410h205v-410h-205z" />
<glyph unicode="&#x201e;" horiz-adv-x="819" d="M102 -205v410h205v-410h-205zM512 -205v410h205v-410h-205z" />
<glyph unicode="&#x2022;" horiz-adv-x="901" d="M246 717q0 85 60 145t145 60t144.5 -60t59.5 -145t-59.5 -145t-144.5 -60t-145 60t-60 145z" />
<glyph unicode="&#x2026;" horiz-adv-x="1228" d="M102 0v205h205v-205h-205zM512 0v205h205v-205h-205zM922 0v205h204v-205h-204z" />
<glyph unicode="&#x202f;" horiz-adv-x="374" />
<glyph unicode="&#x2039;" horiz-adv-x="798" d="M41 571v86l573 572h50l94 -94v-52l-469 -469l469 -469v-51l-94 -94h-50z" />
<glyph unicode="&#x203a;" horiz-adv-x="798" d="M41 94v51l469 469l-469 469v52l94 94h49l574 -572v-86l-574 -571h-49z" />
<glyph unicode="&#x205f;" horiz-adv-x="468" />
<glyph unicode="&#x20ac;" horiz-adv-x="1638" d="M0 492v163h143v123h-143v164h143v82q0 167 120 288.5t290 121.5h614q81 0 155.5 -32.5t129.5 -87t89 -130.5t36 -160h-205q0 85 -60 145t-145 60h-614q-85 0 -145 -60t-60 -145v-82h758v-164h-758v-123h758v-163h-758v-82q0 -85 60 -145t145 -60h614q85 0 145 60t60 145 h205q0 -107 -54 -201.5t-149 -151.5t-207 -57h-614q-166 0 -288 119.5t-122 290.5v82h-143z" />
<glyph unicode="&#x2122;" horiz-adv-x="1640" d="M0 1331v103h723v-103h-309v-614h-105v614h-309zM774 717v717h103l311 -445l309 445h102v-717h-102v532l-309 -442l-311 442v-532h-103z" />
<glyph unicode="&#xe000;" horiz-adv-x="1433" d="M0 0v1434h1434v-1434h-1434z" />
</font>
</defs>
</svg>
